<svg width="150" height="71" viewBox="0 0 150 71" fill="none" xmlns="http://www.w3.org/2000/svg">
<path d="M44.8438 58.625V70H42.8906V58.625H44.8438ZM51.6875 58.625L47.0625 65.1094H44.2891L44.0234 63.4062H45.9766L49.2891 58.625H51.6875ZM49.6875 70L46.0078 64.8125L47.2734 63.3047L52.0391 70H49.6875ZM52.8984 65.8672V65.6875C52.8984 65.0781 52.987 64.513 53.1641 63.9922C53.3411 63.4661 53.5964 63.0104 53.9297 62.625C54.2682 62.2344 54.6797 61.9323 55.1641 61.7188C55.6536 61.5 56.2057 61.3906 56.8203 61.3906C57.4401 61.3906 57.9922 61.5 58.4766 61.7188C58.9661 61.9323 59.3802 62.2344 59.7188 62.625C60.0573 63.0104 60.3151 63.4661 60.4922 63.9922C60.6693 64.513 60.7578 65.0781 60.7578 65.6875V65.8672C60.7578 66.4766 60.6693 67.0417 60.4922 67.5625C60.3151 68.0833 60.0573 68.5391 59.7188 68.9297C59.3802 69.3151 58.9688 69.6172 58.4844 69.8359C58 70.0495 57.4505 70.1562 56.8359 70.1562C56.2161 70.1562 55.6615 70.0495 55.1719 69.8359C54.6875 69.6172 54.276 69.3151 53.9375 68.9297C53.599 68.5391 53.3411 68.0833 53.1641 67.5625C52.987 67.0417 52.8984 66.4766 52.8984 65.8672ZM54.7812 65.6875V65.8672C54.7812 66.2474 54.8203 66.6068 54.8984 66.9453C54.9766 67.2839 55.099 67.5807 55.2656 67.8359C55.4323 68.0911 55.6458 68.2917 55.9062 68.4375C56.1667 68.5833 56.4766 68.6562 56.8359 68.6562C57.1849 68.6562 57.487 68.5833 57.7422 68.4375C58.0026 68.2917 58.2161 68.0911 58.3828 67.8359C58.5495 67.5807 58.6719 67.2839 58.75 66.9453C58.8333 66.6068 58.875 66.2474 58.875 65.8672V65.6875C58.875 65.3125 58.8333 64.9583 58.75 64.625C58.6719 64.2865 58.5469 63.987 58.375 63.7266C58.2083 63.4661 57.9948 63.263 57.7344 63.1172C57.4792 62.9661 57.1745 62.8906 56.8203 62.8906C56.4661 62.8906 56.1589 62.9661 55.8984 63.1172C55.6432 63.263 55.4323 63.4661 55.2656 63.7266C55.099 63.987 54.9766 64.2865 54.8984 64.625C54.8203 64.9583 54.7812 65.3125 54.7812 65.6875ZM68.6094 65.0781V66.5625H64.2344V65.0781H68.6094ZM64.7812 61.5469V70H62.8984V61.5469H64.7812ZM69.9688 61.5469V70H68.0859V61.5469H69.9688ZM75.9297 68.6562C76.237 68.6562 76.513 68.5964 76.7578 68.4766C77.0078 68.3516 77.2083 68.1797 77.3594 67.9609C77.5156 67.7422 77.6016 67.4896 77.6172 67.2031H79.3906C79.3802 67.75 79.2188 68.2474 78.9062 68.6953C78.5938 69.1432 78.1797 69.5 77.6641 69.7656C77.1484 70.026 76.5781 70.1562 75.9531 70.1562C75.3073 70.1562 74.7448 70.0469 74.2656 69.8281C73.7865 69.6042 73.388 69.2969 73.0703 68.9062C72.7526 68.5156 72.513 68.0651 72.3516 67.5547C72.1953 67.0443 72.1172 66.4974 72.1172 65.9141V65.6406C72.1172 65.0573 72.1953 64.5104 72.3516 64C72.513 63.4844 72.7526 63.0312 73.0703 62.6406C73.388 62.25 73.7865 61.9453 74.2656 61.7266C74.7448 61.5026 75.3047 61.3906 75.9453 61.3906C76.6224 61.3906 77.2161 61.526 77.7266 61.7969C78.237 62.0625 78.638 62.4349 78.9297 62.9141C79.2266 63.388 79.3802 63.9401 79.3906 64.5703H77.6172C77.6016 64.2578 77.5234 63.9766 77.3828 63.7266C77.2474 63.4714 77.0547 63.2682 76.8047 63.1172C76.5599 62.9661 76.2656 62.8906 75.9219 62.8906C75.5417 62.8906 75.2266 62.9688 74.9766 63.125C74.7266 63.276 74.5312 63.4844 74.3906 63.75C74.25 64.0104 74.1484 64.3047 74.0859 64.6328C74.0286 64.9557 74 65.2917 74 65.6406V65.9141C74 66.263 74.0286 66.6016 74.0859 66.9297C74.1432 67.2578 74.2422 67.5521 74.3828 67.8125C74.5286 68.0677 74.7266 68.2734 74.9766 68.4297C75.2266 68.5807 75.5443 68.6562 75.9297 68.6562ZM80.9766 65.8672V65.6875C80.9766 65.0781 81.0651 64.513 81.2422 63.9922C81.4193 63.4661 81.6745 63.0104 82.0078 62.625C82.3464 62.2344 82.7578 61.9323 83.2422 61.7188C83.7318 61.5 84.2839 61.3906 84.8984 61.3906C85.5182 61.3906 86.0703 61.5 86.5547 61.7188C87.0443 61.9323 87.4583 62.2344 87.7969 62.625C88.1354 63.0104 88.3932 63.4661 88.5703 63.9922C88.7474 64.513 88.8359 65.0781 88.8359 65.6875V65.8672C88.8359 66.4766 88.7474 67.0417 88.5703 67.5625C88.3932 68.0833 88.1354 68.5391 87.7969 68.9297C87.4583 69.3151 87.0469 69.6172 86.5625 69.8359C86.0781 70.0495 85.5286 70.1562 84.9141 70.1562C84.2943 70.1562 83.7396 70.0495 83.25 69.8359C82.7656 69.6172 82.3542 69.3151 82.0156 68.9297C81.6771 68.5391 81.4193 68.0833 81.2422 67.5625C81.0651 67.0417 80.9766 66.4766 80.9766 65.8672ZM82.8594 65.6875V65.8672C82.8594 66.2474 82.8984 66.6068 82.9766 66.9453C83.0547 67.2839 83.1771 67.5807 83.3438 67.8359C83.5104 68.0911 83.724 68.2917 83.9844 68.4375C84.2448 68.5833 84.5547 68.6562 84.9141 68.6562C85.263 68.6562 85.5651 68.5833 85.8203 68.4375C86.0807 68.2917 86.2943 68.0911 86.4609 67.8359C86.6276 67.5807 86.75 67.2839 86.8281 66.9453C86.9115 66.6068 86.9531 66.2474 86.9531 65.8672V65.6875C86.9531 65.3125 86.9115 64.9583 86.8281 64.625C86.75 64.2865 86.625 63.987 86.4531 63.7266C86.2865 63.4661 86.0729 63.263 85.8125 63.1172C85.5573 62.9661 85.2526 62.8906 84.8984 62.8906C84.5443 62.8906 84.237 62.9661 83.9766 63.1172C83.7214 63.263 83.5104 63.4661 83.3438 63.7266C83.1771 63.987 83.0547 64.2865 82.9766 64.625C82.8984 64.9583 82.8594 65.3125 82.8594 65.6875ZM96.4688 61.5469V63.0469H92.3438V61.5469H96.4688ZM97.9453 61.5469V70H96.0625V61.5469H97.9453ZM91.8828 61.5469H93.7422L93.5156 65.7266C93.4844 66.3464 93.4219 66.8932 93.3281 67.3672C93.2396 67.8359 93.1198 68.2396 92.9688 68.5781C92.8177 68.9115 92.6328 69.1823 92.4141 69.3906C92.1953 69.599 91.9401 69.7526 91.6484 69.8516C91.3568 69.9505 91.0286 70 90.6641 70H90.0781L90.0703 68.4531L90.3672 68.4297C90.5599 68.4141 90.7266 68.3646 90.8672 68.2812C91.0078 68.1927 91.1276 68.0677 91.2266 67.9062C91.3307 67.7448 91.4141 67.5365 91.4766 67.2812C91.5443 67.026 91.5964 66.724 91.6328 66.375C91.6745 66.026 91.7057 65.6198 91.7266 65.1562L91.8828 61.5469ZM101.844 64.2344H104.336C105.065 64.2344 105.685 64.3568 106.195 64.6016C106.706 64.8464 107.094 65.1875 107.359 65.625C107.63 66.0573 107.766 66.5521 107.766 67.1094C107.766 67.5208 107.69 67.9036 107.539 68.2578C107.388 68.6068 107.164 68.9115 106.867 69.1719C106.576 69.4323 106.216 69.6354 105.789 69.7812C105.367 69.9271 104.883 70 104.336 70H100.594V61.5469H102.484V68.5078H104.336C104.711 68.5078 105.01 68.4427 105.234 68.3125C105.458 68.1823 105.62 68.013 105.719 67.8047C105.823 67.5964 105.875 67.375 105.875 67.1406C105.875 66.901 105.823 66.6745 105.719 66.4609C105.62 66.2474 105.458 66.0729 105.234 65.9375C105.01 65.8021 104.711 65.7344 104.336 65.7344H101.844V64.2344Z" fill="#49454F"/>
<path d="M68.75 34.0833C67.375 34.7708 66.2292 35.7916 65.375 37.0625C64.8958 37.7916 64.8958 38.7083 65.375 39.4375C66.2292 40.7083 67.375 41.7291 68.75 42.4166M81.6875 34.0833C83.0625 34.7708 84.2083 35.7916 85.0625 37.0625C85.5417 37.7916 85.5417 38.7083 85.0625 39.4375C84.2083 40.7083 83.0625 41.7291 81.6875 42.4166M54.6458 23.6875L94.6875 23.6666M68.75 52.8333H81.25C91.6667 52.8333 95.8333 48.6666 95.8333 38.25V25.75C95.8333 15.3333 91.6667 11.1666 81.25 11.1666H68.75C58.3333 11.1666 54.1667 15.3333 54.1667 25.75V38.25C54.1667 48.6666 58.3333 52.8333 68.75 52.8333Z" stroke="#49454F" stroke-width="4" stroke-linecap="round" stroke-linejoin="round"/>
</svg>
