<svg width="50" height="50" viewBox="0 0 50 50" fill="none" xmlns="http://www.w3.org/2000/svg">
<path d="M22.7084 6.66663L21.1084 7.86663L22.7084 6.66663ZM25.8334 10.8333L24.2334 12.0333L24.2411 12.0435L25.8334 10.8333ZM16.6667 2.16663C15.5622 2.16663 14.6667 3.06206 14.6667 4.16663C14.6667 5.2712 15.5622 6.16663 16.6667 6.16663V2.16663ZM39.6667 13.2916C39.6667 14.3962 40.5622 15.2916 41.6667 15.2916C42.7713 15.2916 43.6667 14.3962 43.6667 13.2916H39.6667ZM43.8334 22.9166V35.4166H47.8334V22.9166H43.8334ZM43.8334 35.4166C43.8334 39.5976 43.2624 41.4093 42.3359 42.3357C41.4094 43.2622 39.5977 43.8333 35.4167 43.8333V47.8333C39.5691 47.8333 42.9658 47.3627 45.1643 45.1642C47.3628 42.9657 47.8334 39.569 47.8334 35.4166H43.8334ZM35.4167 43.8333H14.5834V47.8333H35.4167V43.8333ZM14.5834 43.8333C10.4025 43.8333 8.59078 43.2622 7.66429 42.3357C6.73781 41.4093 6.16675 39.5976 6.16675 35.4166H2.16675C2.16675 39.569 2.63735 42.9657 4.83587 45.1642C7.03438 47.3627 10.431 47.8333 14.5834 47.8333V43.8333ZM6.16675 35.4166V14.5833H2.16675V35.4166H6.16675ZM6.16675 14.5833C6.16675 10.4023 6.73781 8.59066 7.66429 7.66417C8.59078 6.73769 10.4025 6.16663 14.5834 6.16663V2.16663C10.431 2.16663 7.03438 2.63723 4.83587 4.83575C2.63735 7.03426 2.16675 10.4309 2.16675 14.5833H6.16675ZM14.5834 6.16663H17.7084V2.16663H14.5834V6.16663ZM17.7084 6.16663C19.0978 6.16663 19.6352 6.3752 19.9051 6.53731C20.2222 6.72785 20.4669 7.01131 21.1084 7.86663L24.3084 5.46663C23.7624 4.7386 23.0696 3.77207 21.9649 3.10844C20.8129 2.41639 19.4441 2.16663 17.7084 2.16663V6.16663ZM21.1084 7.86663L24.2334 12.0333L27.4334 9.63329L24.3084 5.46663L21.1084 7.86663ZM24.2411 12.0435C24.5836 12.4941 25.1206 13.2488 25.9812 13.7689C26.8942 14.3207 27.9446 14.5 29.1667 14.5V10.5C28.3056 10.5 28.0851 10.3667 28.0502 10.3456C27.9629 10.2928 27.8749 10.2141 27.4257 9.62313L24.2411 12.0435ZM29.1667 14.5H35.4167V10.5H29.1667V14.5ZM35.4167 14.5C39.5977 14.5 41.4094 15.071 42.3359 15.9975C43.2624 16.924 43.8334 18.7357 43.8334 22.9166H47.8334C47.8334 18.7643 47.3628 15.3676 45.1643 13.1691C42.9658 10.9706 39.5691 10.5 35.4167 10.5V14.5ZM16.6667 6.16663H35.4167V2.16663H16.6667V6.16663ZM35.4167 6.16663C37.1918 6.16663 38.1557 6.60903 38.69 7.14334C39.2243 7.67765 39.6667 8.64158 39.6667 10.4166H43.6667C43.6667 8.025 43.0675 5.86394 41.5185 4.31491C39.9694 2.76589 37.8084 2.16663 35.4167 2.16663V6.16663ZM39.6667 10.4166V13.2916H43.6667V10.4166H39.6667Z" fill="#292D32"/>
</svg>
