<svg width="150" height="74" viewBox="0 0 150 74" fill="none" xmlns="http://www.w3.org/2000/svg">
<path d="M95.8333 44.5833C95.8333 45.6884 95.3943 46.7482 94.6129 47.5296C93.8315 48.311 92.7717 48.75 91.6667 48.75H58.3333C57.2283 48.75 56.1684 48.311 55.387 47.5296C54.6056 46.7482 54.1667 45.6884 54.1667 44.5833V15.4167C54.1667 14.3116 54.6056 13.2518 55.387 12.4704C56.1684 11.689 57.2283 11.25 58.3333 11.25H68.75L72.9167 17.5H91.6667C92.7717 17.5 93.8315 17.939 94.6129 18.7204C95.3943 19.5018 95.8333 20.5616 95.8333 21.6667V44.5833Z" stroke="#49454F" stroke-width="4" stroke-linecap="round" stroke-linejoin="round"/>
<path d="M17.0156 64.5469H15.4375V63.4297H16.7969C17.2812 63.4297 17.6745 63.3594 17.9766 63.2188C18.2786 63.0729 18.4974 62.8724 18.6328 62.6172C18.7734 62.3568 18.8438 62.0547 18.8438 61.7109C18.8438 61.4036 18.7656 61.1224 18.6094 60.8672C18.4583 60.612 18.224 60.4089 17.9062 60.2578C17.5885 60.1016 17.1797 60.0234 16.6797 60.0234C16.3047 60.0234 15.9635 60.0911 15.6562 60.2266C15.349 60.362 15.1042 60.5521 14.9219 60.7969C14.7448 61.0417 14.6562 61.3307 14.6562 61.6641H12.6953C12.6953 61.1693 12.7995 60.7266 13.0078 60.3359C13.2214 59.9401 13.5104 59.6042 13.875 59.3281C14.2448 59.0521 14.6693 58.8411 15.1484 58.6953C15.6328 58.5443 16.1432 58.4688 16.6797 58.4688C17.3047 58.4688 17.8698 58.5391 18.375 58.6797C18.8802 58.8151 19.3151 59.0182 19.6797 59.2891C20.0443 59.5599 20.3229 59.8984 20.5156 60.3047C20.7083 60.7057 20.8047 61.1719 20.8047 61.7031C20.8047 62.0938 20.7135 62.4609 20.5312 62.8047C20.3542 63.1484 20.099 63.4505 19.7656 63.7109C19.4323 63.9714 19.0312 64.1771 18.5625 64.3281C18.099 64.474 17.5833 64.5469 17.0156 64.5469ZM15.4375 63.8672H17.0156C17.6458 63.8672 18.2057 63.9323 18.6953 64.0625C19.1849 64.1927 19.599 64.3828 19.9375 64.6328C20.276 64.8828 20.5339 65.1927 20.7109 65.5625C20.888 65.9271 20.9766 66.3464 20.9766 66.8203C20.9766 67.3516 20.8698 67.8255 20.6562 68.2422C20.4479 68.6536 20.151 69.0026 19.7656 69.2891C19.3802 69.5755 18.9245 69.7917 18.3984 69.9375C17.8776 70.0833 17.3047 70.1562 16.6797 70.1562C16.1745 70.1562 15.6745 70.0938 15.1797 69.9688C14.6901 69.8385 14.2448 69.6406 13.8438 69.375C13.4479 69.1042 13.1302 68.7604 12.8906 68.3438C12.651 67.9271 12.5312 67.4271 12.5312 66.8438H14.5C14.5 67.1667 14.5911 67.4635 14.7734 67.7344C14.9609 68 15.2161 68.2135 15.5391 68.375C15.8672 68.5312 16.2474 68.6094 16.6797 68.6094C17.1745 68.6094 17.5938 68.5312 17.9375 68.375C18.2865 68.2188 18.5521 68.0052 18.7344 67.7344C18.9219 67.4635 19.0156 67.1589 19.0156 66.8203C19.0156 66.4974 18.9661 66.2188 18.8672 65.9844C18.7734 65.7448 18.6328 65.5521 18.4453 65.4062C18.2578 65.2552 18.026 65.1432 17.75 65.0703C17.474 64.9974 17.1562 64.9609 16.7969 64.9609H15.4375V63.8672ZM27.9141 68.3047V64.2734C27.9141 63.9714 27.8594 63.7109 27.75 63.4922C27.6406 63.2734 27.474 63.1042 27.25 62.9844C27.0312 62.8646 26.7552 62.8047 26.4219 62.8047C26.1146 62.8047 25.849 62.8568 25.625 62.9609C25.401 63.0651 25.2266 63.2057 25.1016 63.3828C24.9766 63.5599 24.9141 63.7604 24.9141 63.9844H23.0391C23.0391 63.651 23.1198 63.3281 23.2812 63.0156C23.4427 62.7031 23.6771 62.4245 23.9844 62.1797C24.2917 61.9349 24.6589 61.7422 25.0859 61.6016C25.513 61.4609 25.9922 61.3906 26.5234 61.3906C27.1589 61.3906 27.7214 61.4974 28.2109 61.7109C28.7057 61.9245 29.0938 62.2474 29.375 62.6797C29.6615 63.1068 29.8047 63.6432 29.8047 64.2891V68.0469C29.8047 68.4323 29.8307 68.7786 29.8828 69.0859C29.9401 69.388 30.0208 69.651 30.125 69.875V70H28.1953C28.1068 69.7969 28.0365 69.5391 27.9844 69.2266C27.9375 68.9089 27.9141 68.6016 27.9141 68.3047ZM28.1875 64.8594L28.2031 66.0234H26.8516C26.5026 66.0234 26.1953 66.0573 25.9297 66.125C25.6641 66.1875 25.4427 66.2812 25.2656 66.4062C25.0885 66.5312 24.9557 66.6823 24.8672 66.8594C24.7786 67.0365 24.7344 67.237 24.7344 67.4609C24.7344 67.6849 24.7865 67.8906 24.8906 68.0781C24.9948 68.2604 25.1458 68.4036 25.3438 68.5078C25.5469 68.612 25.7917 68.6641 26.0781 68.6641C26.4635 68.6641 26.7995 68.5859 27.0859 68.4297C27.3776 68.2682 27.6068 68.0729 27.7734 67.8438C27.9401 67.6094 28.0286 67.388 28.0391 67.1797L28.6484 68.0156C28.5859 68.2292 28.4792 68.4583 28.3281 68.7031C28.1771 68.9479 27.9792 69.1823 27.7344 69.4062C27.4948 69.625 27.2057 69.8047 26.8672 69.9453C26.5339 70.0859 26.1484 70.1562 25.7109 70.1562C25.1589 70.1562 24.6667 70.0469 24.2344 69.8281C23.8021 69.6042 23.4635 69.3047 23.2188 68.9297C22.974 68.5495 22.8516 68.1198 22.8516 67.6406C22.8516 67.1927 22.9349 66.7969 23.1016 66.4531C23.2734 66.1042 23.5234 65.8125 23.8516 65.5781C24.1849 65.3438 24.5911 65.1667 25.0703 65.0469C25.5495 64.9219 26.0964 64.8594 26.7109 64.8594H28.1875ZM37.8984 61.5469V63.0469H34.2109V70H32.3281V61.5469H37.8984ZM41.3828 63.1719V73.25H39.5V61.5469H41.2344L41.3828 63.1719ZM46.8906 65.6953V65.8594C46.8906 66.474 46.8177 67.0443 46.6719 67.5703C46.5312 68.0911 46.3203 68.5469 46.0391 68.9375C45.763 69.3229 45.4219 69.6224 45.0156 69.8359C44.6094 70.0495 44.1406 70.1562 43.6094 70.1562C43.0833 70.1562 42.6224 70.0599 42.2266 69.8672C41.8359 69.6693 41.5052 69.3906 41.2344 69.0312C40.9635 68.6719 40.7448 68.25 40.5781 67.7656C40.4167 67.276 40.3021 66.7396 40.2344 66.1562V65.5234C40.3021 64.9036 40.4167 64.3411 40.5781 63.8359C40.7448 63.3307 40.9635 62.8958 41.2344 62.5312C41.5052 62.1667 41.8359 61.8854 42.2266 61.6875C42.6172 61.4896 43.0729 61.3906 43.5938 61.3906C44.125 61.3906 44.5964 61.4948 45.0078 61.7031C45.4193 61.9062 45.7656 62.1979 46.0469 62.5781C46.3281 62.9531 46.5391 63.4062 46.6797 63.9375C46.8203 64.4635 46.8906 65.0495 46.8906 65.6953ZM45.0078 65.8594V65.6953C45.0078 65.3047 44.9714 64.9427 44.8984 64.6094C44.8255 64.2708 44.7109 63.974 44.5547 63.7188C44.3984 63.4635 44.1979 63.2656 43.9531 63.125C43.7135 62.9792 43.4245 62.9062 43.0859 62.9062C42.7526 62.9062 42.4661 62.9635 42.2266 63.0781C41.987 63.1875 41.7865 63.3411 41.625 63.5391C41.4635 63.737 41.3385 63.9688 41.25 64.2344C41.1615 64.4948 41.099 64.7786 41.0625 65.0859V66.6016C41.125 66.9766 41.2318 67.3203 41.3828 67.6328C41.5339 67.9453 41.7474 68.1953 42.0234 68.3828C42.3047 68.5651 42.6641 68.6562 43.1016 68.6562C43.4401 68.6562 43.7292 68.5833 43.9688 68.4375C44.2083 68.2917 44.4036 68.0911 44.5547 67.8359C44.7109 67.5755 44.8255 67.276 44.8984 66.9375C44.9714 66.599 45.0078 66.2396 45.0078 65.8594ZM51.3516 69.0781L53.6484 61.5469H55.6641L52.2734 71.2891C52.1953 71.4974 52.0938 71.724 51.9688 71.9688C51.8438 72.2135 51.6797 72.4453 51.4766 72.6641C51.2786 72.888 51.0312 73.0677 50.7344 73.2031C50.4375 73.3438 50.0781 73.4141 49.6562 73.4141C49.4896 73.4141 49.3281 73.3984 49.1719 73.3672C49.0208 73.3411 48.8776 73.3125 48.7422 73.2812L48.7344 71.8438C48.7865 71.849 48.849 71.8542 48.9219 71.8594C49 71.8646 49.0625 71.8672 49.1094 71.8672C49.4219 71.8672 49.6823 71.8281 49.8906 71.75C50.099 71.6771 50.2682 71.5573 50.3984 71.3906C50.5339 71.224 50.6484 71 50.7422 70.7188L51.3516 69.0781ZM50.0547 61.5469L52.0625 67.875L52.3984 69.8594L51.0938 70.1953L48.0234 61.5469H50.0547ZM60.7422 65.9609H59.1172V65.0078H60.4297C60.763 65.0078 61.0286 64.9635 61.2266 64.875C61.4297 64.7865 61.5729 64.6641 61.6562 64.5078C61.7448 64.3464 61.7891 64.1589 61.7891 63.9453C61.7891 63.7578 61.7448 63.5807 61.6562 63.4141C61.5729 63.2422 61.4297 63.1016 61.2266 62.9922C61.0234 62.8828 60.7474 62.8281 60.3984 62.8281C60.112 62.8281 59.8542 62.875 59.625 62.9688C59.401 63.0625 59.224 63.1927 59.0938 63.3594C58.9635 63.526 58.8984 63.7188 58.8984 63.9375H57.0156C57.0156 63.4115 57.1641 62.9583 57.4609 62.5781C57.763 62.1979 58.1667 61.9062 58.6719 61.7031C59.1771 61.5 59.7318 61.3984 60.3359 61.3984C60.8516 61.3984 61.3151 61.4531 61.7266 61.5625C62.138 61.6667 62.487 61.8229 62.7734 62.0312C63.0651 62.2344 63.2865 62.4896 63.4375 62.7969C63.5938 63.099 63.6719 63.4505 63.6719 63.8516C63.6719 64.138 63.6042 64.4089 63.4688 64.6641C63.3333 64.9193 63.138 65.1458 62.8828 65.3438C62.6276 65.5365 62.3177 65.6875 61.9531 65.7969C61.5938 65.9062 61.1901 65.9609 60.7422 65.9609ZM59.1172 65.4141H60.7422C61.2422 65.4141 61.6849 65.4635 62.0703 65.5625C62.4557 65.6562 62.7786 65.7969 63.0391 65.9844C63.2995 66.1719 63.4948 66.4036 63.625 66.6797C63.7604 66.9505 63.8281 67.263 63.8281 67.6172C63.8281 68.013 63.7422 68.3698 63.5703 68.6875C63.4036 69 63.1641 69.2656 62.8516 69.4844C62.5443 69.7031 62.1771 69.8698 61.75 69.9844C61.3229 70.099 60.8516 70.1562 60.3359 70.1562C59.7734 70.1562 59.2266 70.0625 58.6953 69.875C58.1693 69.6875 57.7344 69.3984 57.3906 69.0078C57.0521 68.612 56.8828 68.1094 56.8828 67.5H58.7656C58.7656 67.7135 58.8307 67.9141 58.9609 68.1016C59.0911 68.2891 59.2786 68.4427 59.5234 68.5625C59.7682 68.6771 60.0625 68.7344 60.4062 68.7344C60.7604 68.7344 61.0495 68.6797 61.2734 68.5703C61.4974 68.4557 61.6641 68.3073 61.7734 68.125C61.8828 67.9375 61.9375 67.7396 61.9375 67.5312C61.9375 67.25 61.8828 67.0234 61.7734 66.8516C61.6641 66.6797 61.4974 66.5547 61.2734 66.4766C61.0495 66.3932 60.7682 66.3516 60.4297 66.3516H59.1172V65.4141ZM67.875 67.25L71.1953 61.5469H73.0781V70H71.1953V64.2891L67.875 70H65.9922V61.5469H67.875V67.25ZM79.4922 61.5469V70H77.6016V61.5469H79.4922ZM82.2656 61.5469V63.0312H74.875V61.5469H82.2656ZM85.4219 64.2344H87.9141C88.6432 64.2344 89.263 64.3568 89.7734 64.6016C90.2839 64.8464 90.6719 65.1875 90.9375 65.625C91.2083 66.0573 91.3438 66.5521 91.3438 67.1094C91.3438 67.5208 91.2682 67.9036 91.1172 68.2578C90.9661 68.6068 90.7422 68.9115 90.4453 69.1719C90.1536 69.4323 89.7943 69.6354 89.3672 69.7812C88.9453 69.9271 88.4609 70 87.9141 70H84.1719V61.5469H86.0625V68.5078H87.9141C88.2891 68.5078 88.5885 68.4427 88.8125 68.3125C89.0365 68.1823 89.1979 68.013 89.2969 67.8047C89.401 67.5964 89.4531 67.375 89.4531 67.1406C89.4531 66.901 89.401 66.6745 89.2969 66.4609C89.1979 66.2474 89.0365 66.0729 88.8125 65.9375C88.5885 65.8021 88.2891 65.7344 87.9141 65.7344H85.4219V64.2344ZM99.3672 61.5469H101.25L101.156 64.5234C101.13 65.388 101.031 66.1302 100.859 66.75C100.688 67.3698 100.464 67.8932 100.188 68.3203C99.9115 68.7422 99.599 69.0885 99.25 69.3594C98.9062 69.6302 98.5443 69.8438 98.1641 70H97.6094V68.5156L97.875 68.5C98.099 68.2604 98.2917 68.0208 98.4531 67.7812C98.6198 67.5365 98.7604 67.2682 98.875 66.9766C98.9896 66.6797 99.0781 66.3333 99.1406 65.9375C99.2083 65.5417 99.2526 65.0703 99.2734 64.5234L99.3672 61.5469ZM99.8672 61.5469H105.227V70H103.352V63.1406H99.8672V61.5469ZM97.1797 68.5H106.383V72.5156H104.5V70H99.0859V72.5156H97.1719L97.1797 68.5ZM112.992 68.3047V64.2734C112.992 63.9714 112.938 63.7109 112.828 63.4922C112.719 63.2734 112.552 63.1042 112.328 62.9844C112.109 62.8646 111.833 62.8047 111.5 62.8047C111.193 62.8047 110.927 62.8568 110.703 62.9609C110.479 63.0651 110.305 63.2057 110.18 63.3828C110.055 63.5599 109.992 63.7604 109.992 63.9844H108.117C108.117 63.651 108.198 63.3281 108.359 63.0156C108.521 62.7031 108.755 62.4245 109.062 62.1797C109.37 61.9349 109.737 61.7422 110.164 61.6016C110.591 61.4609 111.07 61.3906 111.602 61.3906C112.237 61.3906 112.799 61.4974 113.289 61.7109C113.784 61.9245 114.172 62.2474 114.453 62.6797C114.74 63.1068 114.883 63.6432 114.883 64.2891V68.0469C114.883 68.4323 114.909 68.7786 114.961 69.0859C115.018 69.388 115.099 69.651 115.203 69.875V70H113.273C113.185 69.7969 113.115 69.5391 113.062 69.2266C113.016 68.9089 112.992 68.6016 112.992 68.3047ZM113.266 64.8594L113.281 66.0234H111.93C111.581 66.0234 111.273 66.0573 111.008 66.125C110.742 66.1875 110.521 66.2812 110.344 66.4062C110.167 66.5312 110.034 66.6823 109.945 66.8594C109.857 67.0365 109.812 67.237 109.812 67.4609C109.812 67.6849 109.865 67.8906 109.969 68.0781C110.073 68.2604 110.224 68.4036 110.422 68.5078C110.625 68.612 110.87 68.6641 111.156 68.6641C111.542 68.6641 111.878 68.5859 112.164 68.4297C112.456 68.2682 112.685 68.0729 112.852 67.8438C113.018 67.6094 113.107 67.388 113.117 67.1797L113.727 68.0156C113.664 68.2292 113.557 68.4583 113.406 68.7031C113.255 68.9479 113.057 69.1823 112.812 69.4062C112.573 69.625 112.284 69.8047 111.945 69.9453C111.612 70.0859 111.227 70.1562 110.789 70.1562C110.237 70.1562 109.745 70.0469 109.312 69.8281C108.88 69.6042 108.542 69.3047 108.297 68.9297C108.052 68.5495 107.93 68.1198 107.93 67.6406C107.93 67.1927 108.013 66.7969 108.18 66.4531C108.352 66.1042 108.602 65.8125 108.93 65.5781C109.263 65.3438 109.669 65.1667 110.148 65.0469C110.628 64.9219 111.174 64.8594 111.789 64.8594H113.266ZM122.375 67.7188L124.891 61.5469H126.523L123.016 70H121.734L118.234 61.5469H119.867L122.375 67.7188ZM119.383 61.5469V70H117.5V61.5469H119.383ZM125.367 70V61.5469H127.258V70H125.367ZM135.539 61.5469V63.0469H131.367V61.5469H135.539ZM131.812 61.5469V70H129.93V61.5469H131.812ZM137.016 61.5469V70H135.125V61.5469H137.016Z" fill="#49454F"/>
</svg>
