<svg width="150" height="73" viewBox="0 0 150 73" fill="none" xmlns="http://www.w3.org/2000/svg">
<path d="M75 53C88.8071 53 100 41.8071 100 28C100 14.1929 88.8071 3 75 3C61.1929 3 50 14.1929 50 28C50 41.8071 61.1929 53 75 53Z" stroke="#49454F" stroke-width="4" stroke-linecap="round" stroke-linejoin="round"/>
<path d="M75 33C77.7614 33 80 30.7614 80 28C80 25.2386 77.7614 23 75 23C72.2386 23 70 25.2386 70 28C70 30.7614 72.2386 33 75 33Z" stroke="#49454F" stroke-width="4" stroke-linecap="round" stroke-linejoin="round"/>
<path d="M26.8516 66.2969H28.8047C28.7422 67.0417 28.5339 67.7057 28.1797 68.2891C27.8255 68.8672 27.3281 69.3229 26.6875 69.6562C26.0469 69.9896 25.2682 70.1562 24.3516 70.1562C23.6484 70.1562 23.0156 70.0312 22.4531 69.7812C21.8906 69.526 21.4089 69.1667 21.0078 68.7031C20.6068 68.2344 20.2995 67.6693 20.0859 67.0078C19.8776 66.3464 19.7734 65.6068 19.7734 64.7891V63.8438C19.7734 63.026 19.8802 62.2865 20.0938 61.625C20.3125 60.9635 20.625 60.3984 21.0312 59.9297C21.4375 59.4557 21.9245 59.0938 22.4922 58.8438C23.0651 58.5938 23.7083 58.4688 24.4219 58.4688C25.3281 58.4688 26.0938 58.6354 26.7188 58.9688C27.3438 59.3021 27.8281 59.763 28.1719 60.3516C28.5208 60.9401 28.7344 61.6146 28.8125 62.375H26.8594C26.8073 61.8854 26.6927 61.4661 26.5156 61.1172C26.3438 60.7682 26.0885 60.5026 25.75 60.3203C25.4115 60.1328 24.9688 60.0391 24.4219 60.0391C23.974 60.0391 23.5833 60.1224 23.25 60.2891C22.9167 60.4557 22.638 60.7005 22.4141 61.0234C22.1901 61.3464 22.0208 61.7448 21.9062 62.2188C21.7969 62.6875 21.7422 63.224 21.7422 63.8281V64.7891C21.7422 65.362 21.7917 65.8828 21.8906 66.3516C21.9948 66.8151 22.151 67.2135 22.3594 67.5469C22.5729 67.8802 22.8438 68.138 23.1719 68.3203C23.5 68.5026 23.8932 68.5938 24.3516 68.5938C24.9089 68.5938 25.3594 68.5052 25.7031 68.3281C26.0521 68.151 26.3151 67.8932 26.4922 67.5547C26.6745 67.2109 26.7943 66.7917 26.8516 66.2969ZM30.5391 65.8672V65.6875C30.5391 65.0781 30.6276 64.513 30.8047 63.9922C30.9818 63.4661 31.237 63.0104 31.5703 62.625C31.9089 62.2344 32.3203 61.9323 32.8047 61.7188C33.2943 61.5 33.8464 61.3906 34.4609 61.3906C35.0807 61.3906 35.6328 61.5 36.1172 61.7188C36.6068 61.9323 37.0208 62.2344 37.3594 62.625C37.6979 63.0104 37.9557 63.4661 38.1328 63.9922C38.3099 64.513 38.3984 65.0781 38.3984 65.6875V65.8672C38.3984 66.4766 38.3099 67.0417 38.1328 67.5625C37.9557 68.0833 37.6979 68.5391 37.3594 68.9297C37.0208 69.3151 36.6094 69.6172 36.125 69.8359C35.6406 70.0495 35.0911 70.1562 34.4766 70.1562C33.8568 70.1562 33.3021 70.0495 32.8125 69.8359C32.3281 69.6172 31.9167 69.3151 31.5781 68.9297C31.2396 68.5391 30.9818 68.0833 30.8047 67.5625C30.6276 67.0417 30.5391 66.4766 30.5391 65.8672ZM32.4219 65.6875V65.8672C32.4219 66.2474 32.4609 66.6068 32.5391 66.9453C32.6172 67.2839 32.7396 67.5807 32.9062 67.8359C33.0729 68.0911 33.2865 68.2917 33.5469 68.4375C33.8073 68.5833 34.1172 68.6562 34.4766 68.6562C34.8255 68.6562 35.1276 68.5833 35.3828 68.4375C35.6432 68.2917 35.8568 68.0911 36.0234 67.8359C36.1901 67.5807 36.3125 67.2839 36.3906 66.9453C36.474 66.6068 36.5156 66.2474 36.5156 65.8672V65.6875C36.5156 65.3125 36.474 64.9583 36.3906 64.625C36.3125 64.2865 36.1875 63.987 36.0156 63.7266C35.849 63.4661 35.6354 63.263 35.375 63.1172C35.1198 62.9661 34.8151 62.8906 34.4609 62.8906C34.1068 62.8906 33.7995 62.9661 33.5391 63.1172C33.2839 63.263 33.0729 63.4661 32.9062 63.7266C32.7396 63.987 32.6172 64.2865 32.5391 64.625C32.4609 64.9583 32.4219 65.3125 32.4219 65.6875ZM43.9766 65.9609H42.3516V65.0078H43.6641C43.9974 65.0078 44.263 64.9635 44.4609 64.875C44.6641 64.7865 44.8073 64.6641 44.8906 64.5078C44.9792 64.3464 45.0234 64.1589 45.0234 63.9453C45.0234 63.7578 44.9792 63.5807 44.8906 63.4141C44.8073 63.2422 44.6641 63.1016 44.4609 62.9922C44.2578 62.8828 43.9818 62.8281 43.6328 62.8281C43.3464 62.8281 43.0885 62.875 42.8594 62.9688C42.6354 63.0625 42.4583 63.1927 42.3281 63.3594C42.1979 63.526 42.1328 63.7188 42.1328 63.9375H40.25C40.25 63.4115 40.3984 62.9583 40.6953 62.5781C40.9974 62.1979 41.401 61.9062 41.9062 61.7031C42.4115 61.5 42.9661 61.3984 43.5703 61.3984C44.0859 61.3984 44.5495 61.4531 44.9609 61.5625C45.3724 61.6667 45.7214 61.8229 46.0078 62.0312C46.2995 62.2344 46.5208 62.4896 46.6719 62.7969C46.8281 63.099 46.9062 63.4505 46.9062 63.8516C46.9062 64.138 46.8385 64.4089 46.7031 64.6641C46.5677 64.9193 46.3724 65.1458 46.1172 65.3438C45.862 65.5365 45.5521 65.6875 45.1875 65.7969C44.8281 65.9062 44.4245 65.9609 43.9766 65.9609ZM42.3516 65.4141H43.9766C44.4766 65.4141 44.9193 65.4635 45.3047 65.5625C45.6901 65.6562 46.013 65.7969 46.2734 65.9844C46.5339 66.1719 46.7292 66.4036 46.8594 66.6797C46.9948 66.9505 47.0625 67.263 47.0625 67.6172C47.0625 68.013 46.9766 68.3698 46.8047 68.6875C46.638 69 46.3984 69.2656 46.0859 69.4844C45.7786 69.7031 45.4115 69.8698 44.9844 69.9844C44.5573 70.099 44.0859 70.1562 43.5703 70.1562C43.0078 70.1562 42.4609 70.0625 41.9297 69.875C41.4036 69.6875 40.9688 69.3984 40.625 69.0078C40.2865 68.612 40.1172 68.1094 40.1172 67.5H42C42 67.7135 42.0651 67.9141 42.1953 68.1016C42.3255 68.2891 42.513 68.4427 42.7578 68.5625C43.0026 68.6771 43.2969 68.7344 43.6406 68.7344C43.9948 68.7344 44.2839 68.6797 44.5078 68.5703C44.7318 68.4557 44.8984 68.3073 45.0078 68.125C45.1172 67.9375 45.1719 67.7396 45.1719 67.5312C45.1719 67.25 45.1172 67.0234 45.0078 66.8516C44.8984 66.6797 44.7318 66.5547 44.5078 66.4766C44.2839 66.3932 44.0026 66.3516 43.6641 66.3516H42.3516V65.4141ZM50.6953 61.5469H52.5781L52.4844 64.5234C52.4583 65.388 52.3594 66.1302 52.1875 66.75C52.0156 67.3698 51.7917 67.8932 51.5156 68.3203C51.2396 68.7422 50.9271 69.0885 50.5781 69.3594C50.2344 69.6302 49.8724 69.8438 49.4922 70H48.9375V68.5156L49.2031 68.5C49.4271 68.2604 49.6198 68.0208 49.7812 67.7812C49.9479 67.5365 50.0885 67.2682 50.2031 66.9766C50.3177 66.6797 50.4062 66.3333 50.4688 65.9375C50.5365 65.5417 50.5807 65.0703 50.6016 64.5234L50.6953 61.5469ZM51.1953 61.5469H56.5547V70H54.6797V63.1406H51.1953V61.5469ZM48.5078 68.5H57.7109V72.5156H55.8281V70H50.4141V72.5156H48.5L48.5078 68.5ZM64.3203 68.3047V64.2734C64.3203 63.9714 64.2656 63.7109 64.1562 63.4922C64.0469 63.2734 63.8802 63.1042 63.6562 62.9844C63.4375 62.8646 63.1615 62.8047 62.8281 62.8047C62.5208 62.8047 62.2552 62.8568 62.0312 62.9609C61.8073 63.0651 61.6328 63.2057 61.5078 63.3828C61.3828 63.5599 61.3203 63.7604 61.3203 63.9844H59.4453C59.4453 63.651 59.526 63.3281 59.6875 63.0156C59.849 62.7031 60.0833 62.4245 60.3906 62.1797C60.6979 61.9349 61.0651 61.7422 61.4922 61.6016C61.9193 61.4609 62.3984 61.3906 62.9297 61.3906C63.5651 61.3906 64.1276 61.4974 64.6172 61.7109C65.112 61.9245 65.5 62.2474 65.7812 62.6797C66.0677 63.1068 66.2109 63.6432 66.2109 64.2891V68.0469C66.2109 68.4323 66.237 68.7786 66.2891 69.0859C66.3464 69.388 66.4271 69.651 66.5312 69.875V70H64.6016C64.513 69.7969 64.4427 69.5391 64.3906 69.2266C64.3438 68.9089 64.3203 68.6016 64.3203 68.3047ZM64.5938 64.8594L64.6094 66.0234H63.2578C62.9089 66.0234 62.6016 66.0573 62.3359 66.125C62.0703 66.1875 61.849 66.2812 61.6719 66.4062C61.4948 66.5312 61.362 66.6823 61.2734 66.8594C61.1849 67.0365 61.1406 67.237 61.1406 67.4609C61.1406 67.6849 61.1927 67.8906 61.2969 68.0781C61.401 68.2604 61.5521 68.4036 61.75 68.5078C61.9531 68.612 62.1979 68.6641 62.4844 68.6641C62.8698 68.6641 63.2057 68.5859 63.4922 68.4297C63.7839 68.2682 64.013 68.0729 64.1797 67.8438C64.3464 67.6094 64.4349 67.388 64.4453 67.1797L65.0547 68.0156C64.9922 68.2292 64.8854 68.4583 64.7344 68.7031C64.5833 68.9479 64.3854 69.1823 64.1406 69.4062C63.901 69.625 63.612 69.8047 63.2734 69.9453C62.9401 70.0859 62.5547 70.1562 62.1172 70.1562C61.5651 70.1562 61.0729 70.0469 60.6406 69.8281C60.2083 69.6042 59.8698 69.3047 59.625 68.9297C59.3802 68.5495 59.2578 68.1198 59.2578 67.6406C59.2578 67.1927 59.3411 66.7969 59.5078 66.4531C59.6797 66.1042 59.9297 65.8125 60.2578 65.5781C60.5911 65.3438 60.9974 65.1667 61.4766 65.0469C61.9557 64.9219 62.5026 64.8594 63.1172 64.8594H64.5938ZM72.4766 61.5469V70H70.5859V61.5469H72.4766ZM75.25 61.5469V63.0312H67.8594V61.5469H75.25ZM78.4062 64.2344H80.8984C81.6276 64.2344 82.2474 64.3568 82.7578 64.6016C83.2682 64.8464 83.6562 65.1875 83.9219 65.625C84.1927 66.0573 84.3281 66.5521 84.3281 67.1094C84.3281 67.5208 84.2526 67.9036 84.1016 68.2578C83.9505 68.6068 83.7266 68.9115 83.4297 69.1719C83.138 69.4323 82.7786 69.6354 82.3516 69.7812C81.9297 69.9271 81.4453 70 80.8984 70H77.1562V61.5469H79.0469V68.5078H80.8984C81.2734 68.5078 81.5729 68.4427 81.7969 68.3125C82.0208 68.1823 82.1823 68.013 82.2812 67.8047C82.3854 67.5964 82.4375 67.375 82.4375 67.1406C82.4375 66.901 82.3854 66.6745 82.2812 66.4609C82.1823 66.2474 82.0208 66.0729 81.7969 65.9375C81.5729 65.8021 81.2734 65.7344 80.8984 65.7344H78.4062V64.2344ZM92.3516 61.5469H94.2344L94.1406 64.5234C94.1146 65.388 94.0156 66.1302 93.8438 66.75C93.6719 67.3698 93.4479 67.8932 93.1719 68.3203C92.8958 68.7422 92.5833 69.0885 92.2344 69.3594C91.8906 69.6302 91.5286 69.8438 91.1484 70H90.5938V68.5156L90.8594 68.5C91.0833 68.2604 91.276 68.0208 91.4375 67.7812C91.6042 67.5365 91.7448 67.2682 91.8594 66.9766C91.974 66.6797 92.0625 66.3333 92.125 65.9375C92.1927 65.5417 92.237 65.0703 92.2578 64.5234L92.3516 61.5469ZM92.8516 61.5469H98.2109V70H96.3359V63.1406H92.8516V61.5469ZM90.1641 68.5H99.3672V72.5156H97.4844V70H92.0703V72.5156H90.1562L90.1641 68.5ZM105.977 68.3047V64.2734C105.977 63.9714 105.922 63.7109 105.812 63.4922C105.703 63.2734 105.536 63.1042 105.312 62.9844C105.094 62.8646 104.818 62.8047 104.484 62.8047C104.177 62.8047 103.911 62.8568 103.688 62.9609C103.464 63.0651 103.289 63.2057 103.164 63.3828C103.039 63.5599 102.977 63.7604 102.977 63.9844H101.102C101.102 63.651 101.182 63.3281 101.344 63.0156C101.505 62.7031 101.74 62.4245 102.047 62.1797C102.354 61.9349 102.721 61.7422 103.148 61.6016C103.576 61.4609 104.055 61.3906 104.586 61.3906C105.221 61.3906 105.784 61.4974 106.273 61.7109C106.768 61.9245 107.156 62.2474 107.438 62.6797C107.724 63.1068 107.867 63.6432 107.867 64.2891V68.0469C107.867 68.4323 107.893 68.7786 107.945 69.0859C108.003 69.388 108.083 69.651 108.188 69.875V70H106.258C106.169 69.7969 106.099 69.5391 106.047 69.2266C106 68.9089 105.977 68.6016 105.977 68.3047ZM106.25 64.8594L106.266 66.0234H104.914C104.565 66.0234 104.258 66.0573 103.992 66.125C103.727 66.1875 103.505 66.2812 103.328 66.4062C103.151 66.5312 103.018 66.6823 102.93 66.8594C102.841 67.0365 102.797 67.237 102.797 67.4609C102.797 67.6849 102.849 67.8906 102.953 68.0781C103.057 68.2604 103.208 68.4036 103.406 68.5078C103.609 68.612 103.854 68.6641 104.141 68.6641C104.526 68.6641 104.862 68.5859 105.148 68.4297C105.44 68.2682 105.669 68.0729 105.836 67.8438C106.003 67.6094 106.091 67.388 106.102 67.1797L106.711 68.0156C106.648 68.2292 106.542 68.4583 106.391 68.7031C106.24 68.9479 106.042 69.1823 105.797 69.4062C105.557 69.625 105.268 69.8047 104.93 69.9453C104.596 70.0859 104.211 70.1562 103.773 70.1562C103.221 70.1562 102.729 70.0469 102.297 69.8281C101.865 69.6042 101.526 69.3047 101.281 68.9297C101.036 68.5495 100.914 68.1198 100.914 67.6406C100.914 67.1927 100.997 66.7969 101.164 66.4531C101.336 66.1042 101.586 65.8125 101.914 65.5781C102.247 65.3438 102.654 65.1667 103.133 65.0469C103.612 64.9219 104.159 64.8594 104.773 64.8594H106.25ZM115.359 67.7188L117.875 61.5469H119.508L116 70H114.719L111.219 61.5469H112.852L115.359 67.7188ZM112.367 61.5469V70H110.484V61.5469H112.367ZM118.352 70V61.5469H120.242V70H118.352ZM128.523 61.5469V63.0469H124.352V61.5469H128.523ZM124.797 61.5469V70H122.914V61.5469H124.797ZM130 61.5469V70H128.109V61.5469H130Z" fill="#49454F"/>
</svg>
