<svg width="150" height="72" viewBox="0 0 150 72" fill="none" xmlns="http://www.w3.org/2000/svg">
<path d="M40.9219 61.375V62.9297H34.8828V61.375H40.9219ZM35.3672 56.625V68H33.4062V56.625H35.3672ZM42.4297 56.625V68H40.4766V56.625H42.4297ZM49.8438 66.3047V62.2734C49.8438 61.9714 49.7891 61.7109 49.6797 61.4922C49.5703 61.2734 49.4036 61.1042 49.1797 60.9844C48.9609 60.8646 48.6849 60.8047 48.3516 60.8047C48.0443 60.8047 47.7786 60.8568 47.5547 60.9609C47.3307 61.0651 47.1562 61.2057 47.0312 61.3828C46.9062 61.5599 46.8438 61.7604 46.8438 61.9844H44.9688C44.9688 61.651 45.0495 61.3281 45.2109 61.0156C45.3724 60.7031 45.6068 60.4245 45.9141 60.1797C46.2214 59.9349 46.5885 59.7422 47.0156 59.6016C47.4427 59.4609 47.9219 59.3906 48.4531 59.3906C49.0885 59.3906 49.651 59.4974 50.1406 59.7109C50.6354 59.9245 51.0234 60.2474 51.3047 60.6797C51.5911 61.1068 51.7344 61.6432 51.7344 62.2891V66.0469C51.7344 66.4323 51.7604 66.7786 51.8125 67.0859C51.8698 67.388 51.9505 67.651 52.0547 67.875V68H50.125C50.0365 67.7969 49.9661 67.5391 49.9141 67.2266C49.8672 66.9089 49.8438 66.6016 49.8438 66.3047ZM50.1172 62.8594L50.1328 64.0234H48.7812C48.4323 64.0234 48.125 64.0573 47.8594 64.125C47.5938 64.1875 47.3724 64.2812 47.1953 64.4062C47.0182 64.5312 46.8854 64.6823 46.7969 64.8594C46.7083 65.0365 46.6641 65.237 46.6641 65.4609C46.6641 65.6849 46.7161 65.8906 46.8203 66.0781C46.9245 66.2604 47.0755 66.4036 47.2734 66.5078C47.4766 66.612 47.7214 66.6641 48.0078 66.6641C48.3932 66.6641 48.7292 66.5859 49.0156 66.4297C49.3073 66.2682 49.5365 66.0729 49.7031 65.8438C49.8698 65.6094 49.9583 65.388 49.9688 65.1797L50.5781 66.0156C50.5156 66.2292 50.4089 66.4583 50.2578 66.7031C50.1068 66.9479 49.9089 67.1823 49.6641 67.4062C49.4245 67.625 49.1354 67.8047 48.7969 67.9453C48.4635 68.0859 48.0781 68.1562 47.6406 68.1562C47.0885 68.1562 46.5964 68.0469 46.1641 67.8281C45.7318 67.6042 45.3932 67.3047 45.1484 66.9297C44.9036 66.5495 44.7812 66.1198 44.7812 65.6406C44.7812 65.1927 44.8646 64.7969 45.0312 64.4531C45.2031 64.1042 45.4531 63.8125 45.7812 63.5781C46.1146 63.3438 46.5208 63.1667 47 63.0469C47.4792 62.9219 48.026 62.8594 48.6406 62.8594H50.1172ZM57.6562 66.6562C57.9635 66.6562 58.2396 66.5964 58.4844 66.4766C58.7344 66.3516 58.9349 66.1797 59.0859 65.9609C59.2422 65.7422 59.3281 65.4896 59.3438 65.2031H61.1172C61.1068 65.75 60.9453 66.2474 60.6328 66.6953C60.3203 67.1432 59.9062 67.5 59.3906 67.7656C58.875 68.026 58.3047 68.1562 57.6797 68.1562C57.0339 68.1562 56.4714 68.0469 55.9922 67.8281C55.513 67.6042 55.1146 67.2969 54.7969 66.9062C54.4792 66.5156 54.2396 66.0651 54.0781 65.5547C53.9219 65.0443 53.8438 64.4974 53.8438 63.9141V63.6406C53.8438 63.0573 53.9219 62.5104 54.0781 62C54.2396 61.4844 54.4792 61.0312 54.7969 60.6406C55.1146 60.25 55.513 59.9453 55.9922 59.7266C56.4714 59.5026 57.0312 59.3906 57.6719 59.3906C58.349 59.3906 58.9427 59.526 59.4531 59.7969C59.9635 60.0625 60.3646 60.4349 60.6562 60.9141C60.9531 61.388 61.1068 61.9401 61.1172 62.5703H59.3438C59.3281 62.2578 59.25 61.9766 59.1094 61.7266C58.974 61.4714 58.7812 61.2682 58.5312 61.1172C58.2865 60.9661 57.9922 60.8906 57.6484 60.8906C57.2682 60.8906 56.9531 60.9688 56.7031 61.125C56.4531 61.276 56.2578 61.4844 56.1172 61.75C55.9766 62.0104 55.875 62.3047 55.8125 62.6328C55.7552 62.9557 55.7266 63.2917 55.7266 63.6406V63.9141C55.7266 64.263 55.7552 64.6016 55.8125 64.9297C55.8698 65.2578 55.9688 65.5521 56.1094 65.8125C56.2552 66.0677 56.4531 66.2734 56.7031 66.4297C56.9531 66.5807 57.2708 66.6562 57.6562 66.6562ZM66.9844 59.5469V68H65.0938V59.5469H66.9844ZM69.7578 59.5469V61.0312H62.3672V59.5469H69.7578ZM73.4062 61.1719V71.25H71.5234V59.5469H73.2578L73.4062 61.1719ZM78.9141 63.6953V63.8594C78.9141 64.474 78.8411 65.0443 78.6953 65.5703C78.5547 66.0911 78.3438 66.5469 78.0625 66.9375C77.7865 67.3229 77.4453 67.6224 77.0391 67.8359C76.6328 68.0495 76.1641 68.1562 75.6328 68.1562C75.1068 68.1562 74.6458 68.0599 74.25 67.8672C73.8594 67.6693 73.5286 67.3906 73.2578 67.0312C72.987 66.6719 72.7682 66.25 72.6016 65.7656C72.4401 65.276 72.3255 64.7396 72.2578 64.1562V63.5234C72.3255 62.9036 72.4401 62.3411 72.6016 61.8359C72.7682 61.3307 72.987 60.8958 73.2578 60.5312C73.5286 60.1667 73.8594 59.8854 74.25 59.6875C74.6406 59.4896 75.0964 59.3906 75.6172 59.3906C76.1484 59.3906 76.6198 59.4948 77.0312 59.7031C77.4427 59.9062 77.7891 60.1979 78.0703 60.5781C78.3516 60.9531 78.5625 61.4062 78.7031 61.9375C78.8438 62.4635 78.9141 63.0495 78.9141 63.6953ZM77.0312 63.8594V63.6953C77.0312 63.3047 76.9948 62.9427 76.9219 62.6094C76.849 62.2708 76.7344 61.974 76.5781 61.7188C76.4219 61.4635 76.2214 61.2656 75.9766 61.125C75.737 60.9792 75.4479 60.9062 75.1094 60.9062C74.776 60.9062 74.4896 60.9635 74.25 61.0781C74.0104 61.1875 73.8099 61.3411 73.6484 61.5391C73.487 61.737 73.362 61.9688 73.2734 62.2344C73.1849 62.4948 73.1224 62.7786 73.0859 63.0859V64.6016C73.1484 64.9766 73.2552 65.3203 73.4062 65.6328C73.5573 65.9453 73.7708 66.1953 74.0469 66.3828C74.3281 66.5651 74.6875 66.6562 75.125 66.6562C75.4635 66.6562 75.7526 66.5833 75.9922 66.4375C76.2318 66.2917 76.4271 66.0911 76.5781 65.8359C76.7344 65.5755 76.849 65.276 76.9219 64.9375C76.9948 64.599 77.0312 64.2396 77.0312 63.8594ZM80.6562 63.8672V63.6875C80.6562 63.0781 80.7448 62.513 80.9219 61.9922C81.099 61.4661 81.3542 61.0104 81.6875 60.625C82.026 60.2344 82.4375 59.9323 82.9219 59.7188C83.4115 59.5 83.9635 59.3906 84.5781 59.3906C85.1979 59.3906 85.75 59.5 86.2344 59.7188C86.724 59.9323 87.138 60.2344 87.4766 60.625C87.8151 61.0104 88.0729 61.4661 88.25 61.9922C88.4271 62.513 88.5156 63.0781 88.5156 63.6875V63.8672C88.5156 64.4766 88.4271 65.0417 88.25 65.5625C88.0729 66.0833 87.8151 66.5391 87.4766 66.9297C87.138 67.3151 86.7266 67.6172 86.2422 67.8359C85.7578 68.0495 85.2083 68.1562 84.5938 68.1562C83.974 68.1562 83.4193 68.0495 82.9297 67.8359C82.4453 67.6172 82.0339 67.3151 81.6953 66.9297C81.3568 66.5391 81.099 66.0833 80.9219 65.5625C80.7448 65.0417 80.6562 64.4766 80.6562 63.8672ZM82.5391 63.6875V63.8672C82.5391 64.2474 82.5781 64.6068 82.6562 64.9453C82.7344 65.2839 82.8568 65.5807 83.0234 65.8359C83.1901 66.0911 83.4036 66.2917 83.6641 66.4375C83.9245 66.5833 84.2344 66.6562 84.5938 66.6562C84.9427 66.6562 85.2448 66.5833 85.5 66.4375C85.7604 66.2917 85.974 66.0911 86.1406 65.8359C86.3073 65.5807 86.4297 65.2839 86.5078 64.9453C86.5911 64.6068 86.6328 64.2474 86.6328 63.8672V63.6875C86.6328 63.3125 86.5911 62.9583 86.5078 62.625C86.4297 62.2865 86.3047 61.987 86.1328 61.7266C85.9661 61.4661 85.7526 61.263 85.4922 61.1172C85.237 60.9661 84.9323 60.8906 84.5781 60.8906C84.224 60.8906 83.9167 60.9661 83.6562 61.1172C83.401 61.263 83.1901 61.4661 83.0234 61.7266C82.8568 61.987 82.7344 62.2865 82.6562 62.625C82.5781 62.9583 82.5391 63.3125 82.5391 63.6875ZM92.5391 65.25L95.8594 59.5469H97.7422V68H95.8594V62.2891L92.5391 68H90.6562V59.5469H92.5391V65.25ZM95.3594 56.2969H96.7578C96.7578 56.7292 96.6536 57.112 96.4453 57.4453C96.2422 57.7734 95.9505 58.0312 95.5703 58.2188C95.1953 58.4062 94.7474 58.5 94.2266 58.5C93.4401 58.5 92.8177 58.2969 92.3594 57.8906C91.9062 57.4792 91.6797 56.9479 91.6797 56.2969H93.0781C93.0781 56.5885 93.1641 56.8464 93.3359 57.0703C93.513 57.2891 93.8099 57.3984 94.2266 57.3984C94.638 57.3984 94.9297 57.2891 95.1016 57.0703C95.2734 56.8464 95.3594 56.5885 95.3594 56.2969ZM102.266 59.5469V68H100.383V59.5469H102.266ZM107.781 59.5469L103.977 64.6328H101.828L101.578 62.9297H103.148L105.43 59.5469H107.781ZM105.578 68L103.031 64.3125L104.516 63.2422L108.055 68H105.578ZM111.523 65.25L114.844 59.5469H116.727V68H114.844V62.2891L111.523 68H109.641V59.5469H111.523V65.25Z" fill="#49454F"/>
<path d="M75 33.8182C78.7656 33.8182 81.8182 30.7656 81.8182 27C81.8182 23.2344 78.7656 20.1818 75 20.1818C71.2344 20.1818 68.1818 23.2344 68.1818 27C68.1818 30.7656 71.2344 33.8182 75 33.8182Z" stroke="#49454F" stroke-width="4" stroke-linecap="round" stroke-linejoin="round"/>
<path d="M91.8182 33.8182C91.5156 34.5037 91.4254 35.2641 91.5591 36.0013C91.6928 36.7386 92.0442 37.4189 92.5682 37.9545L92.7045 38.0909C93.1272 38.5131 93.4624 39.0144 93.6912 39.5662C93.9199 40.118 94.0377 40.7095 94.0377 41.3068C94.0377 41.9042 93.9199 42.4956 93.6912 43.0475C93.4624 43.5993 93.1272 44.1006 92.7045 44.5227C92.2824 44.9453 91.7811 45.2806 91.2293 45.5094C90.6775 45.7381 90.086 45.8558 89.4886 45.8558C88.8913 45.8558 88.2998 45.7381 87.748 45.5094C87.1962 45.2806 86.6949 44.9453 86.2727 44.5227L86.1364 44.3864C85.6007 43.8624 84.9204 43.5109 84.1832 43.3773C83.4459 43.2436 82.6855 43.3338 82 43.6364C81.3278 43.9245 80.7545 44.4028 80.3507 45.0126C79.9469 45.6223 79.7302 46.3368 79.7273 47.0682V47.4545C79.7273 48.6601 79.2484 49.8162 78.3959 50.6687C77.5435 51.5211 76.3873 52 75.1818 52C73.9763 52 72.8201 51.5211 71.9677 50.6687C71.1153 49.8162 70.6364 48.6601 70.6364 47.4545V47.25C70.6188 46.4977 70.3753 45.7682 69.9375 45.1561C69.4998 44.5441 68.888 44.0779 68.1818 43.8182C67.4963 43.5156 66.7359 43.4254 65.9987 43.5591C65.2614 43.6928 64.5811 44.0442 64.0455 44.5682L63.9091 44.7045C63.4869 45.1272 62.9856 45.4624 62.4338 45.6912C61.882 45.9199 61.2905 46.0377 60.6932 46.0377C60.0958 46.0377 59.5044 45.9199 58.9525 45.6912C58.4007 45.4624 57.8994 45.1272 57.4773 44.7045C57.0547 44.2824 56.7194 43.7811 56.4906 43.2293C56.2619 42.6775 56.1442 42.086 56.1442 41.4886C56.1442 40.8913 56.2619 40.2998 56.4906 39.748C56.7194 39.1962 57.0547 38.6949 57.4773 38.2727L57.6136 38.1364C58.1376 37.6007 58.4891 36.9204 58.6227 36.1832C58.7564 35.4459 58.6662 34.6855 58.3636 34C58.0755 33.3278 57.5972 32.7545 56.9874 32.3507C56.3777 31.9469 55.6632 31.7302 54.9318 31.7273H54.5455C53.3399 31.7273 52.1838 31.2484 51.3313 30.3959C50.4789 29.5435 50 28.3873 50 27.1818C50 25.9763 50.4789 24.8201 51.3313 23.9677C52.1838 23.1153 53.3399 22.6364 54.5455 22.6364H54.75C55.5023 22.6188 56.2318 22.3753 56.8439 21.9375C57.4559 21.4998 57.9221 20.888 58.1818 20.1818C58.4844 19.4963 58.5746 18.7359 58.4409 17.9987C58.3072 17.2614 57.9558 16.5811 57.4318 16.0455L57.2955 15.9091C56.8728 15.4869 56.5376 14.9856 56.3088 14.4338C56.0801 13.882 55.9623 13.2905 55.9623 12.6932C55.9623 12.0958 56.0801 11.5044 56.3088 10.9525C56.5376 10.4007 56.8728 9.89942 57.2955 9.47727C57.7176 9.05465 58.2189 8.71938 58.7707 8.49064C59.3225 8.26189 59.914 8.14415 60.5114 8.14415C61.1087 8.14415 61.7002 8.26189 62.252 8.49064C62.8038 8.71938 63.3051 9.05465 63.7273 9.47727L63.8636 9.61364C64.3993 10.1376 65.0796 10.4891 65.8168 10.6227C66.5541 10.7564 67.3145 10.6662 68 10.3636H68.1818C68.854 10.0755 69.4273 9.59717 69.8311 8.98742C70.2349 8.37767 70.4516 7.66315 70.4545 6.93182V6.54545C70.4545 5.33992 70.9334 4.18377 71.7859 3.33133C72.6383 2.47889 73.7945 2 75 2C76.2055 2 77.3617 2.47889 78.2141 3.33133C79.0666 4.18377 79.5455 5.33992 79.5455 6.54545V6.75C79.5484 7.48133 79.7651 8.19585 80.1689 8.8056C80.5727 9.41535 81.146 9.89372 81.8182 10.1818C82.5037 10.4844 83.2641 10.5746 84.0013 10.4409C84.7386 10.3072 85.4189 9.95577 85.9545 9.43182L86.0909 9.29545C86.5131 8.87283 87.0144 8.53757 87.5662 8.30882C88.118 8.08007 88.7095 7.96233 89.3068 7.96233C89.9042 7.96233 90.4956 8.08007 91.0475 8.30882C91.5993 8.53757 92.1006 8.87283 92.5227 9.29545C92.9453 9.7176 93.2806 10.2189 93.5094 10.7707C93.7381 11.3225 93.8558 11.914 93.8558 12.5114C93.8558 13.1087 93.7381 13.7002 93.5094 14.252C93.2806 14.8038 92.9453 15.3051 92.5227 15.7273L92.3864 15.8636C91.8624 16.3993 91.5109 17.0796 91.3773 17.8168C91.2436 18.5541 91.3338 19.3145 91.6364 20V20.1818C91.9245 20.854 92.4028 21.4273 93.0126 21.8311C93.6223 22.2349 94.3368 22.4516 95.0682 22.4545H95.4545C96.6601 22.4545 97.8162 22.9334 98.6687 23.7859C99.5211 24.6383 100 25.7945 100 27C100 28.2055 99.5211 29.3617 98.6687 30.2141C97.8162 31.0666 96.6601 31.5455 95.4545 31.5455H95.25C94.5187 31.5484 93.8041 31.7651 93.1944 32.1689C92.5846 32.5727 92.1063 33.146 91.8182 33.8182Z" stroke="#49454F" stroke-width="4" stroke-linecap="round" stroke-linejoin="round"/>
</svg>
