<svg width="150" height="74" viewBox="0 0 150 74" fill="none" xmlns="http://www.w3.org/2000/svg">
<path d="M45.5781 58.625V70H43.625V60.1875H38.5703V70H36.6172V58.625H45.5781ZM50.1406 63.1719V73.25H48.2578V61.5469H49.9922L50.1406 63.1719ZM55.6484 65.6953V65.8594C55.6484 66.474 55.5755 67.0443 55.4297 67.5703C55.2891 68.0911 55.0781 68.5469 54.7969 68.9375C54.5208 69.3229 54.1797 69.6224 53.7734 69.8359C53.3672 70.0495 52.8984 70.1562 52.3672 70.1562C51.8411 70.1562 51.3802 70.0599 50.9844 69.8672C50.5938 69.6693 50.263 69.3906 49.9922 69.0312C49.7214 68.6719 49.5026 68.25 49.3359 67.7656C49.1745 67.276 49.0599 66.7396 48.9922 66.1562V65.5234C49.0599 64.9036 49.1745 64.3411 49.3359 63.8359C49.5026 63.3307 49.7214 62.8958 49.9922 62.5312C50.263 62.1667 50.5938 61.8854 50.9844 61.6875C51.375 61.4896 51.8307 61.3906 52.3516 61.3906C52.8828 61.3906 53.3542 61.4948 53.7656 61.7031C54.1771 61.9062 54.5234 62.1979 54.8047 62.5781C55.0859 62.9531 55.2969 63.4062 55.4375 63.9375C55.5781 64.4635 55.6484 65.0495 55.6484 65.6953ZM53.7656 65.8594V65.6953C53.7656 65.3047 53.7292 64.9427 53.6562 64.6094C53.5833 64.2708 53.4688 63.974 53.3125 63.7188C53.1562 63.4635 52.9557 63.2656 52.7109 63.125C52.4714 62.9792 52.1823 62.9062 51.8438 62.9062C51.5104 62.9062 51.224 62.9635 50.9844 63.0781C50.7448 63.1875 50.5443 63.3411 50.3828 63.5391C50.2214 63.737 50.0964 63.9688 50.0078 64.2344C49.9193 64.4948 49.8568 64.7786 49.8203 65.0859V66.6016C49.8828 66.9766 49.9896 67.3203 50.1406 67.6328C50.2917 67.9453 50.5052 68.1953 50.7812 68.3828C51.0625 68.5651 51.4219 68.6562 51.8594 68.6562C52.1979 68.6562 52.487 68.5833 52.7266 68.4375C52.9661 68.2917 53.1615 68.0911 53.3125 67.8359C53.4688 67.5755 53.5833 67.276 53.6562 66.9375C53.7292 66.599 53.7656 66.2396 53.7656 65.8594ZM57.3906 65.8672V65.6875C57.3906 65.0781 57.4792 64.513 57.6562 63.9922C57.8333 63.4661 58.0885 63.0104 58.4219 62.625C58.7604 62.2344 59.1719 61.9323 59.6562 61.7188C60.1458 61.5 60.6979 61.3906 61.3125 61.3906C61.9323 61.3906 62.4844 61.5 62.9688 61.7188C63.4583 61.9323 63.8724 62.2344 64.2109 62.625C64.5495 63.0104 64.8073 63.4661 64.9844 63.9922C65.1615 64.513 65.25 65.0781 65.25 65.6875V65.8672C65.25 66.4766 65.1615 67.0417 64.9844 67.5625C64.8073 68.0833 64.5495 68.5391 64.2109 68.9297C63.8724 69.3151 63.4609 69.6172 62.9766 69.8359C62.4922 70.0495 61.9427 70.1562 61.3281 70.1562C60.7083 70.1562 60.1536 70.0495 59.6641 69.8359C59.1797 69.6172 58.7682 69.3151 58.4297 68.9297C58.0911 68.5391 57.8333 68.0833 57.6562 67.5625C57.4792 67.0417 57.3906 66.4766 57.3906 65.8672ZM59.2734 65.6875V65.8672C59.2734 66.2474 59.3125 66.6068 59.3906 66.9453C59.4688 67.2839 59.5911 67.5807 59.7578 67.8359C59.9245 68.0911 60.138 68.2917 60.3984 68.4375C60.6589 68.5833 60.9688 68.6562 61.3281 68.6562C61.6771 68.6562 61.9792 68.5833 62.2344 68.4375C62.4948 68.2917 62.7083 68.0911 62.875 67.8359C63.0417 67.5807 63.1641 67.2839 63.2422 66.9453C63.3255 66.6068 63.3672 66.2474 63.3672 65.8672V65.6875C63.3672 65.3125 63.3255 64.9583 63.2422 64.625C63.1641 64.2865 63.0391 63.987 62.8672 63.7266C62.7005 63.4661 62.487 63.263 62.2266 63.1172C61.9714 62.9661 61.6667 62.8906 61.3125 62.8906C60.9583 62.8906 60.651 62.9661 60.3906 63.1172C60.1354 63.263 59.9245 63.4661 59.7578 63.7266C59.5911 63.987 59.4688 64.2865 59.3906 64.625C59.3125 64.9583 59.2734 65.3125 59.2734 65.6875ZM70.7812 68.6562C71.0885 68.6562 71.3646 68.5964 71.6094 68.4766C71.8594 68.3516 72.0599 68.1797 72.2109 67.9609C72.3672 67.7422 72.4531 67.4896 72.4688 67.2031H74.2422C74.2318 67.75 74.0703 68.2474 73.7578 68.6953C73.4453 69.1432 73.0312 69.5 72.5156 69.7656C72 70.026 71.4297 70.1562 70.8047 70.1562C70.1589 70.1562 69.5964 70.0469 69.1172 69.8281C68.638 69.6042 68.2396 69.2969 67.9219 68.9062C67.6042 68.5156 67.3646 68.0651 67.2031 67.5547C67.0469 67.0443 66.9688 66.4974 66.9688 65.9141V65.6406C66.9688 65.0573 67.0469 64.5104 67.2031 64C67.3646 63.4844 67.6042 63.0312 67.9219 62.6406C68.2396 62.25 68.638 61.9453 69.1172 61.7266C69.5964 61.5026 70.1562 61.3906 70.7969 61.3906C71.474 61.3906 72.0677 61.526 72.5781 61.7969C73.0885 62.0625 73.4896 62.4349 73.7812 62.9141C74.0781 63.388 74.2318 63.9401 74.2422 64.5703H72.4688C72.4531 64.2578 72.375 63.9766 72.2344 63.7266C72.099 63.4714 71.9062 63.2682 71.6562 63.1172C71.4115 62.9661 71.1172 62.8906 70.7734 62.8906C70.3932 62.8906 70.0781 62.9688 69.8281 63.125C69.5781 63.276 69.3828 63.4844 69.2422 63.75C69.1016 64.0104 69 64.3047 68.9375 64.6328C68.8802 64.9557 68.8516 65.2917 68.8516 65.6406V65.9141C68.8516 66.263 68.8802 66.6016 68.9375 66.9297C68.9948 67.2578 69.0938 67.5521 69.2344 67.8125C69.3802 68.0677 69.5781 68.2734 69.8281 68.4297C70.0781 68.5807 70.3958 68.6562 70.7812 68.6562ZM81.2109 67.7188L83.7266 61.5469H85.3594L81.8516 70H80.5703L77.0703 61.5469H78.7031L81.2109 67.7188ZM78.2188 61.5469V70H76.3359V61.5469H78.2188ZM84.2031 70V61.5469H86.0938V70H84.2031ZM88.3438 65.8672V65.6875C88.3438 65.0781 88.4323 64.513 88.6094 63.9922C88.7865 63.4661 89.0417 63.0104 89.375 62.625C89.7135 62.2344 90.125 61.9323 90.6094 61.7188C91.099 61.5 91.651 61.3906 92.2656 61.3906C92.8854 61.3906 93.4375 61.5 93.9219 61.7188C94.4115 61.9323 94.8255 62.2344 95.1641 62.625C95.5026 63.0104 95.7604 63.4661 95.9375 63.9922C96.1146 64.513 96.2031 65.0781 96.2031 65.6875V65.8672C96.2031 66.4766 96.1146 67.0417 95.9375 67.5625C95.7604 68.0833 95.5026 68.5391 95.1641 68.9297C94.8255 69.3151 94.4141 69.6172 93.9297 69.8359C93.4453 70.0495 92.8958 70.1562 92.2812 70.1562C91.6615 70.1562 91.1068 70.0495 90.6172 69.8359C90.1328 69.6172 89.7214 69.3151 89.3828 68.9297C89.0443 68.5391 88.7865 68.0833 88.6094 67.5625C88.4323 67.0417 88.3438 66.4766 88.3438 65.8672ZM90.2266 65.6875V65.8672C90.2266 66.2474 90.2656 66.6068 90.3438 66.9453C90.4219 67.2839 90.5443 67.5807 90.7109 67.8359C90.8776 68.0911 91.0911 68.2917 91.3516 68.4375C91.612 68.5833 91.9219 68.6562 92.2812 68.6562C92.6302 68.6562 92.9323 68.5833 93.1875 68.4375C93.4479 68.2917 93.6615 68.0911 93.8281 67.8359C93.9948 67.5807 94.1172 67.2839 94.1953 66.9453C94.2786 66.6068 94.3203 66.2474 94.3203 65.8672V65.6875C94.3203 65.3125 94.2786 64.9583 94.1953 64.625C94.1172 64.2865 93.9922 63.987 93.8203 63.7266C93.6536 63.4661 93.4401 63.263 93.1797 63.1172C92.9245 62.9661 92.6198 62.8906 92.2656 62.8906C91.9115 62.8906 91.6042 62.9661 91.3438 63.1172C91.0885 63.263 90.8776 63.4661 90.7109 63.7266C90.5443 63.987 90.4219 64.2865 90.3438 64.625C90.2656 64.9583 90.2266 65.3125 90.2266 65.6875ZM102.016 61.5469V70H100.125V61.5469H102.016ZM104.789 61.5469V63.0312H97.3984V61.5469H104.789ZM108.438 63.1719V73.25H106.555V61.5469H108.289L108.438 63.1719ZM113.945 65.6953V65.8594C113.945 66.474 113.872 67.0443 113.727 67.5703C113.586 68.0911 113.375 68.5469 113.094 68.9375C112.818 69.3229 112.477 69.6224 112.07 69.8359C111.664 70.0495 111.195 70.1562 110.664 70.1562C110.138 70.1562 109.677 70.0599 109.281 69.8672C108.891 69.6693 108.56 69.3906 108.289 69.0312C108.018 68.6719 107.799 68.25 107.633 67.7656C107.471 67.276 107.357 66.7396 107.289 66.1562V65.5234C107.357 64.9036 107.471 64.3411 107.633 63.8359C107.799 63.3307 108.018 62.8958 108.289 62.5312C108.56 62.1667 108.891 61.8854 109.281 61.6875C109.672 61.4896 110.128 61.3906 110.648 61.3906C111.18 61.3906 111.651 61.4948 112.062 61.7031C112.474 61.9062 112.82 62.1979 113.102 62.5781C113.383 62.9531 113.594 63.4062 113.734 63.9375C113.875 64.4635 113.945 65.0495 113.945 65.6953ZM112.062 65.8594V65.6953C112.062 65.3047 112.026 64.9427 111.953 64.6094C111.88 64.2708 111.766 63.974 111.609 63.7188C111.453 63.4635 111.253 63.2656 111.008 63.125C110.768 62.9792 110.479 62.9062 110.141 62.9062C109.807 62.9062 109.521 62.9635 109.281 63.0781C109.042 63.1875 108.841 63.3411 108.68 63.5391C108.518 63.737 108.393 63.9688 108.305 64.2344C108.216 64.4948 108.154 64.7786 108.117 65.0859V66.6016C108.18 66.9766 108.286 67.3203 108.438 67.6328C108.589 67.9453 108.802 68.1953 109.078 68.3828C109.359 68.5651 109.719 68.6562 110.156 68.6562C110.495 68.6562 110.784 68.5833 111.023 68.4375C111.263 68.2917 111.458 68.0911 111.609 67.8359C111.766 67.5755 111.88 67.276 111.953 66.9375C112.026 66.599 112.062 66.2396 112.062 65.8594Z" fill="#49454F"/>
<path d="M52.0833 32C52.0833 32 60.4167 15.3334 75 15.3334C89.5833 15.3334 97.9167 32 97.9167 32C97.9167 32 89.5833 48.6667 75 48.6667C60.4167 48.6667 52.0833 32 52.0833 32Z" stroke="#49454F" stroke-width="4" stroke-linecap="round" stroke-linejoin="round"/>
<path d="M75 38.25C78.4518 38.25 81.25 35.4518 81.25 32C81.25 28.5483 78.4518 25.75 75 25.75C71.5482 25.75 68.75 28.5483 68.75 32C68.75 35.4518 71.5482 38.25 75 38.25Z" stroke="#49454F" stroke-width="4" stroke-linecap="round" stroke-linejoin="round"/>
</svg>
